<svg xmlns="http://www.w3.org/2000/svg" width="640" height="360" viewBox="0 0 640 360" role="img" aria-label="Position based dynamics preview">
  <defs>
    <linearGradient id="bg" x1="0" y1="0" x2="1" y2="1">
      <stop offset="0" stop-color="#34383d"/>
      <stop offset="1" stop-color="#d7d7d4"/>
    </linearGradient>
    <linearGradient id="cloth" x1="0" y1="0" x2="1" y2="0">
      <stop offset="0" stop-color="#222"/>
      <stop offset="1" stop-color="#777"/>
    </linearGradient>
  </defs>
  <rect width="640" height="360" fill="url(#bg)"/>
  <path d="M0 210 C130 190 220 205 340 188 C460 170 540 188 640 158 L640 360 L0 360 Z" fill="#b8b8b5"/>
  <path d="M0 0 H640 V178 C520 205 420 203 304 209 C200 214 100 232 0 224 Z" fill="url(#cloth)" opacity=".72"/>
  <g fill="none" stroke="#111" stroke-opacity=".18" stroke-width="2">
    <path d="M50 184 C170 174 260 188 372 174 C480 160 560 171 626 150"/>
    <path d="M58 204 C176 194 274 205 382 190 C488 175 562 186 632 165"/>
    <path d="M68 224 C190 211 286 225 398 207 C504 190 575 199 640 178"/>
  </g>
  <g fill="#2a2a2a" opacity=".55">
    <circle cx="520" cy="238" r="9"/>
    <circle cx="540" cy="232" r="6"/>
    <circle cx="560" cy="243" r="11"/>
  </g>
</svg>
